<svg xmlns="http://www.w3.org/2000/svg" viewBox="0 0 1248 832">
<path d="M 675 358 L 672 361 L 672 362 L 668 366 L 668 367 L 666 369 L 666 370 L 662 374 L 662 375 L 659 378 L 659 379 L 656 382 L 656 383 L 654 385 L 654 386 L 650 390 L 650 391 L 647 394 L 647 395 L 645 397 L 645 398 L 640 403 L 640 404 L 637 407 L 637 408 L 634 411 L 634 412 L 631 415 L 631 416 L 627 420 L 627 421 L 625 423 L 625 424 L 621 428 L 621 429 L 619 431 L 619 432 L 616 435 L 616 436 L 613 439 L 613 440 L 609 444 L 609 445 L 606 448 L 606 449 L 602 453 L 602 454 L 599 457 L 599 458 L 596 461 L 596 462 L 592 466 L 592 467 L 589 470 L 589 471 L 587 473 L 587 474 L 583 478 L 583 479 L 580 482 L 580 483 L 576 487 L 576 488 L 573 491 L 573 492 L 571 494 L 571 495 L 568 498 L 568 499 L 565 502 L 565 503 L 560 508 L 560 509 L 557 512 L 557 513 L 554 516 L 554 517 L 551 520 L 551 521 L 548 524 L 548 525 L 545 528 L 545 529 L 541 533 L 541 534 L 539 536 L 539 537 L 536 540 L 536 541 L 533 544 L 533 545 L 530 548 L 530 549 L 527 552 L 527 553 L 524 556 L 524 557 L 521 560 L 521 561 L 518 564 L 518 565 L 514 569 L 514 570 L 510 574 L 510 575 L 507 578 L 507 583 L 653 583 L 654 582 L 654 581 L 657 578 L 657 577 L 659 575 L 659 574 L 664 569 L 664 568 L 667 565 L 667 564 L 670 561 L 670 560 L 673 557 L 673 556 L 676 553 L 676 552 L 679 549 L 679 548 L 683 544 L 683 543 L 685 541 L 685 540 L 688 537 L 688 536 L 693 531 L 693 530 L 696 527 L 696 526 L 699 523 L 699 522 L 701 520 L 701 519 L 706 514 L 706 513 L 708 511 L 708 510 L 712 506 L 712 505 L 715 502 L 715 501 L 718 498 L 718 497 L 722 493 L 722 492 L 725 489 L 725 488 L 727 486 L 727 485 L 730 482 L 730 481 L 734 477 L 734 476 L 738 472 L 738 471 L 740 469 L 740 468 L 744 464 L 744 463 L 747 460 L 747 459 L 750 456 L 750 455 L 754 451 L 754 450 L 756 448 L 756 447 L 759 444 L 759 443 L 763 439 L 763 438 L 765 436 L 765 435 L 768 432 L 768 431 L 771 428 L 771 427 L 775 423 L 775 422 L 777 420 L 777 419 L 781 415 L 781 414 L 783 412 L 783 411 L 789 405 L 789 404 L 791 402 L 791 401 L 794 398 L 794 397 L 797 394 L 797 393 L 799 391 L 799 390 L 804 385 L 804 384 L 806 382 L 806 381 L 810 377 L 810 376 L 812 374 L 812 373 L 815 370 L 815 369 L 818 366 L 818 365 L 821 362 L 821 358 Z" fill="#ffffff"/>
<path d="M 552 248 L 549 251 L 549 252 L 546 255 L 546 256 L 543 259 L 543 260 L 539 264 L 539 265 L 537 267 L 537 268 L 533 272 L 533 273 L 531 275 L 531 276 L 527 280 L 527 281 L 524 284 L 524 285 L 520 289 L 520 290 L 515 295 L 515 296 L 511 300 L 511 301 L 509 303 L 509 304 L 506 307 L 506 308 L 502 312 L 502 313 L 498 317 L 498 318 L 495 321 L 495 322 L 492 325 L 492 326 L 489 329 L 489 330 L 485 334 L 485 335 L 481 339 L 481 340 L 479 342 L 479 346 L 978 346 L 979 347 L 983 347 L 984 348 L 986 348 L 987 349 L 989 349 L 990 350 L 991 350 L 993 352 L 994 352 L 995 353 L 995 354 L 996 355 L 996 356 L 997 357 L 997 365 L 996 366 L 996 368 L 995 369 L 995 370 L 994 371 L 994 372 L 992 374 L 992 375 L 990 377 L 990 378 L 986 382 L 986 383 L 979 390 L 978 390 L 974 394 L 973 394 L 972 395 L 971 395 L 969 397 L 968 397 L 967 398 L 965 398 L 964 399 L 962 399 L 961 400 L 957 400 L 956 401 L 815 401 L 814 402 L 813 402 L 813 403 L 810 406 L 810 407 L 808 409 L 808 410 L 804 414 L 804 415 L 802 417 L 802 418 L 800 420 L 800 421 L 796 425 L 796 426 L 793 429 L 793 430 L 791 432 L 791 433 L 787 437 L 787 438 L 783 442 L 783 443 L 780 446 L 780 447 L 778 449 L 778 450 L 775 453 L 775 454 L 772 457 L 772 458 L 769 461 L 769 462 L 766 465 L 766 466 L 763 469 L 763 470 L 759 474 L 759 475 L 757 477 L 757 482 L 803 482 L 804 483 L 809 483 L 810 484 L 812 484 L 813 485 L 814 485 L 815 486 L 816 486 L 817 487 L 818 487 L 820 489 L 821 489 L 826 494 L 826 495 L 830 499 L 830 500 L 832 502 L 832 503 L 834 505 L 834 506 L 836 508 L 836 509 L 837 510 L 837 511 L 839 513 L 839 514 L 841 516 L 841 517 L 842 518 L 842 519 L 844 521 L 844 522 L 846 524 L 846 525 L 847 526 L 847 527 L 849 529 L 849 530 L 851 532 L 851 533 L 853 535 L 853 536 L 854 537 L 854 538 L 856 540 L 856 541 L 857 542 L 857 543 L 859 545 L 859 546 L 860 547 L 860 548 L 862 550 L 862 551 L 864 553 L 864 554 L 866 556 L 866 557 L 867 558 L 867 559 L 869 561 L 869 562 L 870 563 L 870 564 L 872 566 L 872 567 L 874 569 L 874 570 L 876 572 L 876 573 L 877 574 L 877 575 L 879 577 L 879 578 L 880 579 L 880 580 L 882 582 L 882 583 L 884 585 L 884 586 L 886 588 L 886 589 L 887 590 L 887 591 L 889 593 L 889 594 L 891 596 L 891 597 L 893 599 L 893 600 L 896 603 L 896 604 L 905 613 L 906 613 L 909 616 L 910 616 L 912 618 L 913 618 L 915 620 L 916 620 L 918 622 L 919 622 L 921 624 L 922 624 L 923 625 L 925 625 L 926 626 L 927 626 L 928 627 L 930 627 L 931 628 L 932 628 L 933 629 L 935 629 L 936 630 L 938 630 L 939 631 L 941 631 L 942 632 L 945 632 L 946 633 L 949 633 L 950 634 L 952 634 L 953 635 L 957 635 L 958 636 L 962 636 L 963 637 L 970 637 L 971 638 L 980 638 L 981 639 L 1009 639 L 1010 640 L 1025 640 L 1026 639 L 1033 639 L 1034 640 L 1038 640 L 1039 639 L 1130 639 L 1130 635 L 1128 635 L 1127 634 L 1124 634 L 1123 633 L 1120 633 L 1119 632 L 1116 632 L 1115 631 L 1113 631 L 1112 630 L 1109 630 L 1108 629 L 1105 629 L 1104 628 L 1101 628 L 1100 627 L 1098 627 L 1097 626 L 1094 626 L 1093 625 L 1091 625 L 1090 624 L 1087 624 L 1086 623 L 1084 623 L 1083 622 L 1080 622 L 1079 621 L 1078 621 L 1077 620 L 1075 620 L 1074 619 L 1072 619 L 1071 618 L 1070 618 L 1069 617 L 1067 617 L 1066 616 L 1065 616 L 1064 615 L 1063 615 L 1062 614 L 1061 614 L 1060 613 L 1059 613 L 1058 612 L 1057 612 L 1056 611 L 1055 611 L 1053 609 L 1052 609 L 1049 606 L 1048 606 L 1039 597 L 1039 596 L 1035 592 L 1035 591 L 1032 588 L 1032 587 L 1031 586 L 1031 585 L 1029 583 L 1029 582 L 1027 580 L 1027 579 L 1024 576 L 1024 575 L 1022 573 L 1022 572 L 1019 569 L 1019 568 L 1018 567 L 1018 566 L 1015 563 L 1015 562 L 1013 560 L 1013 559 L 1011 557 L 1011 556 L 1010 555 L 1010 554 L 1007 551 L 1007 550 L 1005 548 L 1005 547 L 1003 545 L 1003 544 L 1001 542 L 1001 541 L 999 539 L 999 538 L 997 536 L 997 535 L 995 533 L 995 532 L 994 531 L 994 530 L 992 528 L 992 527 L 990 525 L 990 524 L 987 521 L 987 520 L 985 518 L 985 517 L 984 516 L 984 515 L 981 512 L 981 511 L 979 509 L 979 508 L 978 507 L 978 506 L 976 504 L 976 503 L 974 501 L 974 500 L 972 498 L 972 497 L 969 494 L 969 493 L 967 491 L 967 490 L 966 489 L 966 488 L 964 486 L 964 482 L 965 481 L 975 481 L 976 480 L 982 480 L 983 479 L 988 479 L 989 478 L 993 478 L 994 477 L 998 477 L 999 476 L 1002 476 L 1003 475 L 1006 475 L 1007 474 L 1010 474 L 1011 473 L 1013 473 L 1014 472 L 1016 472 L 1017 471 L 1020 471 L 1021 470 L 1022 470 L 1023 469 L 1025 469 L 1026 468 L 1028 468 L 1029 467 L 1030 467 L 1031 466 L 1033 466 L 1034 465 L 1035 465 L 1036 464 L 1037 464 L 1038 463 L 1039 463 L 1040 462 L 1041 462 L 1042 461 L 1043 461 L 1044 460 L 1045 460 L 1046 459 L 1047 459 L 1048 458 L 1049 458 L 1050 457 L 1051 457 L 1053 455 L 1054 455 L 1056 453 L 1057 453 L 1058 452 L 1059 452 L 1062 449 L 1063 449 L 1065 447 L 1066 447 L 1070 443 L 1071 443 L 1074 440 L 1075 440 L 1082 433 L 1083 433 L 1091 425 L 1091 424 L 1097 418 L 1097 417 L 1100 414 L 1100 413 L 1104 409 L 1104 408 L 1106 406 L 1106 405 L 1108 403 L 1108 402 L 1111 399 L 1111 398 L 1112 397 L 1112 396 L 1114 394 L 1114 393 L 1116 391 L 1116 390 L 1118 388 L 1118 387 L 1120 385 L 1120 384 L 1122 382 L 1122 381 L 1124 379 L 1124 378 L 1125 377 L 1125 376 L 1127 374 L 1127 373 L 1128 372 L 1128 371 L 1129 370 L 1129 369 L 1131 367 L 1131 366 L 1132 365 L 1132 364 L 1133 363 L 1133 362 L 1134 361 L 1134 360 L 1135 359 L 1135 358 L 1136 357 L 1136 356 L 1137 355 L 1137 353 L 1138 352 L 1138 351 L 1139 350 L 1139 348 L 1140 347 L 1140 345 L 1141 344 L 1141 342 L 1142 341 L 1142 338 L 1143 337 L 1143 332 L 1144 331 L 1144 328 L 1145 327 L 1145 301 L 1144 300 L 1144 297 L 1143 296 L 1143 293 L 1142 292 L 1142 290 L 1141 289 L 1141 287 L 1140 286 L 1140 285 L 1139 284 L 1139 283 L 1138 282 L 1138 281 L 1137 280 L 1137 279 L 1135 277 L 1135 276 L 1133 274 L 1133 273 L 1125 265 L 1124 265 L 1119 260 L 1118 260 L 1117 259 L 1116 259 L 1114 257 L 1113 257 L 1112 256 L 1111 256 L 1110 255 L 1109 255 L 1108 254 L 1106 254 L 1105 253 L 1104 253 L 1103 252 L 1100 252 L 1099 251 L 1096 251 L 1095 250 L 1093 250 L 1092 249 L 1088 249 L 1087 248 Z" fill="#ffffff"/>
<path d="M 350 191 L 349 192 L 348 192 L 348 193 L 346 195 L 346 196 L 343 199 L 343 200 L 340 203 L 340 204 L 335 209 L 335 210 L 333 212 L 333 213 L 330 216 L 330 217 L 326 221 L 326 222 L 323 225 L 323 226 L 319 230 L 319 231 L 316 234 L 316 235 L 312 239 L 312 240 L 309 243 L 309 244 L 305 248 L 305 249 L 302 252 L 302 253 L 299 256 L 299 257 L 295 261 L 295 262 L 292 265 L 292 266 L 288 270 L 288 271 L 285 274 L 285 275 L 281 279 L 281 280 L 276 285 L 276 286 L 273 289 L 273 290 L 270 293 L 270 294 L 267 297 L 267 298 L 262 303 L 262 304 L 260 306 L 260 307 L 256 311 L 256 312 L 253 315 L 253 316 L 250 319 L 250 320 L 245 325 L 245 326 L 241 330 L 241 331 L 239 333 L 239 334 L 236 337 L 236 338 L 233 341 L 233 342 L 229 346 L 229 347 L 226 350 L 226 351 L 222 355 L 222 356 L 218 360 L 218 361 L 214 365 L 214 366 L 212 368 L 212 369 L 207 374 L 207 375 L 204 378 L 204 379 L 201 382 L 201 383 L 197 387 L 197 388 L 194 391 L 194 392 L 189 397 L 189 398 L 186 401 L 186 402 L 183 405 L 183 406 L 180 409 L 180 410 L 176 414 L 176 415 L 172 419 L 172 420 L 169 423 L 169 424 L 166 427 L 166 428 L 162 432 L 162 433 L 159 436 L 159 437 L 156 440 L 156 441 L 153 444 L 153 445 L 149 449 L 149 450 L 144 455 L 144 456 L 142 458 L 142 459 L 138 463 L 138 464 L 135 467 L 135 468 L 131 472 L 131 473 L 127 477 L 127 478 L 123 482 L 123 483 L 121 485 L 121 486 L 117 490 L 117 491 L 115 493 L 115 494 L 112 497 L 112 498 L 110 500 L 110 501 L 109 502 L 109 503 L 108 504 L 108 505 L 107 506 L 107 507 L 106 508 L 106 510 L 105 511 L 105 513 L 104 514 L 104 517 L 103 518 L 103 521 L 102 522 L 102 541 L 103 542 L 103 545 L 104 546 L 104 548 L 105 549 L 105 551 L 106 552 L 106 553 L 107 554 L 107 555 L 108 556 L 108 557 L 109 558 L 109 559 L 111 561 L 111 562 L 119 570 L 120 570 L 123 573 L 124 573 L 125 574 L 126 574 L 128 576 L 129 576 L 130 577 L 132 577 L 133 578 L 134 578 L 135 579 L 137 579 L 138 580 L 140 580 L 141 581 L 145 581 L 146 582 L 151 582 L 152 583 L 479 583 L 481 581 L 481 580 L 485 576 L 485 575 L 488 572 L 488 571 L 490 569 L 490 568 L 493 565 L 493 564 L 497 560 L 497 559 L 501 555 L 501 554 L 504 551 L 504 550 L 507 547 L 507 546 L 509 544 L 509 543 L 513 539 L 513 538 L 516 535 L 516 534 L 519 531 L 519 530 L 522 527 L 522 526 L 525 523 L 525 522 L 528 519 L 528 518 L 531 515 L 531 514 L 535 510 L 535 509 L 537 507 L 537 506 L 541 502 L 541 501 L 544 498 L 544 497 L 548 493 L 548 492 L 551 489 L 551 488 L 553 486 L 553 485 L 555 483 L 555 479 L 288 479 L 287 478 L 287 474 L 288 473 L 288 472 L 291 469 L 291 468 L 295 464 L 295 463 L 297 461 L 297 460 L 300 457 L 300 456 L 304 452 L 304 451 L 308 447 L 308 446 L 311 443 L 311 442 L 314 439 L 314 438 L 318 434 L 318 433 L 321 430 L 321 429 L 325 425 L 325 424 L 328 421 L 328 420 L 331 417 L 331 416 L 334 413 L 334 412 L 338 408 L 338 407 L 340 405 L 340 404 L 344 400 L 344 399 L 347 396 L 347 395 L 351 391 L 351 390 L 354 387 L 354 386 L 357 383 L 357 382 L 361 378 L 361 377 L 365 373 L 365 372 L 369 368 L 369 367 L 372 364 L 372 363 L 375 360 L 375 359 L 379 355 L 379 354 L 383 350 L 383 349 L 386 346 L 386 345 L 389 342 L 389 341 L 392 338 L 392 337 L 395 334 L 395 333 L 399 329 L 399 328 L 403 324 L 403 323 L 405 321 L 405 320 L 409 316 L 409 315 L 413 311 L 413 310 L 416 307 L 416 306 L 418 304 L 418 303 L 422 299 L 422 298 L 426 294 L 426 293 L 429 290 L 429 289 L 433 285 L 433 284 L 436 281 L 436 280 L 439 277 L 439 276 L 442 273 L 442 272 L 445 269 L 445 268 L 450 263 L 450 262 L 454 258 L 454 257 L 457 254 L 457 253 L 459 251 L 459 250 L 463 246 L 463 245 L 466 242 L 466 241 L 471 236 L 471 235 L 474 232 L 474 231 L 476 229 L 476 228 L 479 225 L 479 224 L 482 221 L 482 220 L 487 215 L 487 214 L 490 211 L 490 210 L 493 207 L 493 206 L 497 202 L 497 201 L 500 198 L 500 197 L 502 195 L 502 191 Z" fill="#ffffff"/>
</svg>